<svg width="470" height="649" viewBox="0 0 470 649" fill="none" xmlns="http://www.w3.org/2000/svg">
<path d="M230.743 13.1374C269.607 11.3822 308.136 21.0449 341.572 40.933C349.629 45.7025 356.493 50.8781 364.109 56.1303C364.505 51.1997 363.893 22.9794 365.196 21.1172C366.175 20.5972 367.256 20.6126 368.378 20.6233C380.871 20.7423 393.802 21.0855 406.289 20.8913C416.734 20.6857 427.187 20.5828 437.636 20.5824C441.34 20.5738 449.619 20.3673 452.921 20.9281C454.746 22.8275 453.805 36.2515 453.856 39.7925C454.062 66.4284 454.049 93.0656 453.818 119.701L453.821 311.568L453.875 372.452C453.786 389.216 453.973 405.226 451.549 421.951C446.674 455.558 436.786 486.81 418.924 515.809C409.832 530.402 399.091 543.899 386.915 556.036C359.593 583.365 327.377 602.302 289.476 610.783C213.738 627.635 128.505 606.292 79.7209 543.262C66.7641 526.523 53.5841 502.189 48.7564 481.581C52.4178 481.154 56.721 481.271 60.4383 481.147C70.8306 480.811 81.1677 481.461 91.5486 481.29C105.913 481.461 120.453 480.643 134.855 481.347C139.058 481.917 151.357 480.111 154.021 483.812C162.31 495.325 171.527 504.407 183.731 512.212C206.194 526.584 235.748 530.187 261.564 524.191C309.573 513.04 343.499 468.427 353.784 421.92C355.495 414.137 358.328 386.009 356.677 378.54C355.796 377.966 353.948 379.995 353.299 380.717C317.283 420.89 267.237 443.053 213.262 439.042C169.358 435.515 127.8 417.775 94.883 388.51C67.7434 364.628 45.7675 331.684 34.6548 297.159C25.8961 269.947 23.1205 241.147 25.3288 212.636C28.3769 172.93 42.1755 134.802 65.2448 102.34C69.5739 96.3024 75.9413 89.1089 80.8295 83.3262C88.3575 74.4205 98.3761 66.0526 107.591 58.8819C144.497 30.1617 184.144 15.9853 230.743 13.1374Z" fill="#14A18E"/>
<path d="M235.569 104.605C303.938 101.807 361.634 154.953 364.442 223.314C367.25 291.676 314.109 349.373 245.741 352.193C177.358 355.014 119.638 301.863 116.829 233.485C114.02 165.108 167.185 107.403 235.569 104.605Z" fill="#F5FAF8"/>
<path d="M177.285 186.787C199.812 184.725 219.751 201.296 221.845 223.817C223.939 246.338 207.396 266.299 184.875 268.425C162.31 270.554 142.298 253.972 140.2 231.406C138.102 208.84 154.714 188.853 177.285 186.787Z" fill="#1F3C41"/>
<path d="M187.304 203.195C194.421 201.629 201.457 206.144 202.997 213.267C204.537 220.39 199.995 227.408 192.866 228.921C185.775 230.427 178.8 225.915 177.268 218.829C175.736 211.744 180.223 204.754 187.304 203.195Z" fill="#F4F5F5"/>
<path d="M163.843 237.758C167.723 237.136 171.379 239.757 172.035 243.631C172.691 247.504 170.102 251.183 166.233 251.873C162.317 252.571 158.583 249.943 157.918 246.021C157.254 242.099 159.915 238.388 163.843 237.758Z" fill="#F4F5F5"/>
<path d="M298.053 186.697C320.605 185.782 339.646 203.282 340.631 225.827C341.617 248.372 324.176 267.467 301.631 268.524C278.985 269.585 259.785 252.051 258.795 229.405C257.804 206.758 275.401 187.616 298.053 186.697Z" fill="#1F3C41"/>
<path d="M308.054 202.951C315.212 202.072 321.733 207.14 322.649 214.292C323.568 221.443 318.532 227.992 311.385 228.946C304.184 229.906 297.576 224.827 296.653 217.622C295.73 210.417 300.844 203.836 308.054 202.951Z" fill="#F4F5F5"/>
<path d="M284.064 237.495C288.028 237.199 291.478 240.182 291.759 244.147C292.04 248.112 289.045 251.551 285.078 251.817C281.132 252.081 277.715 249.106 277.436 245.161C277.156 241.217 280.12 237.789 284.064 237.495Z" fill="#F4F5F5"/>
</svg>
